<svg aria-hidden="true" style="position: absolute; width: 0; height: 0; overflow: hidden;" version="1.1" xmlns="http://www.w3.org/2000/svg" xmlns:xlink="http://www.w3.org/1999/xlink">
<defs>
<symbol id="icon-Vector2" viewBox="0 0 31 32">
<path fill="#fff" style="fill: var(--color1, #fff)" d="M24.077 0.456l0.070 17.513-17.046 13.736 0.103-16.887 16.872-14.362z"></path>
</symbol>
<symbol id="icon-Vector3" viewBox="0 0 31 32">
<path fill="#fff" style="fill: var(--color1, #fff)" stroke-linejoin="miter" stroke-linecap="butt" stroke-miterlimit="10" stroke-width="0.7386" stroke="#000" d="M23.88 0.896l-0.003 16.706-16.227 13.099 0.173-16.092 16.057-13.713z"></path>
</symbol>
<symbol id="icon-Vector4" viewBox="0 0 36 32">
<path fill="#fff" style="fill: var(--color1, #fff)" d="M29.624 2.39c0 0-3.223-0.977-7.737-0.281-4.065 0.63-14.756 11.103-14.756 11.103l-0.328 18.646c0 0 12.861-10.344 16.928-11.705s7.329 0.072 7.329 0.072l-1.436-17.836z"></path>
</symbol>
<symbol id="icon-Vector5" viewBox="0 0 31 32">
<path d="M24.115 0.164l0.129 17.745-17.287 13.931 0.099-18.492 12.623-10.338 4.436-2.846z"></path>
</symbol>
<symbol id="icon-Vector6" viewBox="0 0 36 32">
<path d="M29.532 2.334c0 0-3.426-1.777-7.763-0.282s-14.805 11.14-14.805 11.14l-0.329 18.708c0 0 12.776-10.842 16.984-11.744 4.010-0.877 7.428 0.873 7.428 0.873l-1.516-18.696z"></path>
</symbol>
<symbol id="icon-Vector7" viewBox="0 0 32 32">
<path fill="#fff" style="fill: var(--color1, #fff)" stroke-linejoin="miter" stroke-linecap="butt" stroke-miterlimit="10" stroke-width="0.4449" stroke="#000" d="M19.347 28.034c-6.696 1.856-13.628-2.065-15.484-8.758s2.069-13.623 8.765-15.479c6.696-1.856 13.629 2.065 15.484 8.758s-2.069 13.623-8.765 15.479z"></path>
</symbol>
<symbol id="icon-Vector8" viewBox="0 0 32 32">
<path fill="#fff" style="fill: var(--color1, #fff); stroke: var(--color2, #ff6b00)" stroke="#ff6b00" stroke-linejoin="miter" stroke-linecap="butt" stroke-miterlimit="10" stroke-width="0.8897" d="M0.639 7.327l24.064-6.67 6.667 24.052-24.064 6.67-6.667-24.052z"></path>
</symbol>
<symbol id="icon-Vector9" viewBox="0 0 30 32">
<path fill="#fff" style="fill: var(--color1, #fff); stroke: var(--color2, #ff6b00)" stroke="#ff6b00" stroke-linejoin="miter" stroke-linecap="butt" stroke-miterlimit="10" stroke-width="2.0604" d="M17.505 26.23c-5.682 1.575-11.564-1.752-13.139-7.431s1.756-11.56 7.438-13.135 11.564 1.752 13.138 7.431c1.574 5.679-1.756 11.56-7.438 13.135z"></path>
</symbol>
<symbol id="icon-Vector10" viewBox="0 0 41 32">
<path fill="#fff" style="fill: var(--color1, #fff); stroke: var(--color2, #ff6b00)" stroke="#ff6b00" stroke-linejoin="miter" stroke-linecap="butt" stroke-miterlimit="10" stroke-width="0.4894" d="M0.347 9.832l34.208-9.482 6.008 21.675-34.208 9.482-6.008-21.675z"></path>
</symbol>
<symbol id="icon-Vector11" viewBox="0 0 16 32">
<path d="M3.896 4.708l3.469 26.367c0 0 6.316-4.465 14.762-3.156l-4.705-25.307c0 0-4.011-3.1-10.222 0.618 0 0-1.281 1.572-3.305 1.478z"></path>
</symbol>
<symbol id="icon-Vector12" viewBox="0 0 32 32">
<path fill="#fff" style="fill: var(--color1, #fff); stroke: var(--color2, #ff6b00)" stroke="#ff6b00" stroke-linejoin="miter" stroke-linecap="butt" stroke-miterlimit="10" stroke-width="0.87" d="M31.035 24.73l-13.575 3.763c-3.548-1.549-7.226-2.867-10.824-4.597-0.462-0.261-0.874-0.342-1.337-0.604l-4.312-15.558 23.529-6.522 6.519 23.518z"></path>
</symbol>
<symbol id="icon-Vector14" viewBox="0 0 21 32">
<path fill="none" stroke="#ff6b00" style="stroke: var(--color2, #ff6b00)" stroke-linejoin="miter" stroke-linecap="butt" stroke-miterlimit="10" stroke-width="0.4036" d="M4.865 6.661l1.855-4.4 10.699 13.482-8.107 15.442-1.99-2.612"></path>
</symbol>
<symbol id="icon-Vector15" viewBox="0 0 31 32">
<path fill="#fff" style="fill: var(--color1, #fff)" d="M7.229 31.709l-1.616-17.148 17.808-14.278 1.419 16.435-17.611 14.991z"></path>
</symbol>
<symbol id="icon-Vector16" viewBox="0 0 31 32">
<path fill="#fff" style="fill: var(--color1, #fff)" stroke-linejoin="miter" stroke-linecap="butt" stroke-miterlimit="10" stroke-width="1.5659" stroke="#000" d="M18.177 27.309c-6.118 1.696-12.451-1.886-14.146-8.001s1.89-12.446 8.008-14.142c6.118-1.696 12.451 1.887 14.146 8.001s-1.89 12.446-8.008 14.142z"></path>
</symbol>
<symbol id="icon-Vector17" viewBox="0 0 13 32">
<path fill="#fff" style="fill: var(--color1, #fff)" d="M23.269 7.389l5.546 9.027c0 0-3.342 1.618-8.070 5.223-4.017 3.077-9.103 8.883-9.103 8.883l-9.421-16.221c0 0 4.208-4.983 10.46-9.177 5.781-3.898 6.984-3.65 6.984-3.65l3.604 5.915z"></path>
</symbol>
<symbol id="icon-Vector18" viewBox="0 0 11 32">
<path fill="#666" style="fill: var(--color3, #666)" d="M10.586 11.889l5.555-2.076-0.668-6.121 5.728-2.259 0.691 6.204 5.959-2.233 0.707 6.424-5.993 2.109-5.827 2.062 0.649 6.216-5.612 1.869 0.596 6.186-5.439 1.687-0.561-6.061-0.591-6.008 5.382-1.894-0.573-6.103z"></path>
</symbol>
<symbol id="icon-Vector19" viewBox="0 0 31 32">
<path fill="#ff6b00" style="fill: var(--color2, #ff6b00)" d="M16.448 15.31l10.974-4.090 1.235 12.712-11.111 3.937-10.668 3.815-1.137-12.358-1.113-12.269 10.659-4.193 1.162 12.446z"></path>
</symbol>
<symbol id="icon-Vector20" viewBox="0 0 14 32">
<path fill="#fff" style="fill: var(--color1, #fff)" d="M57.814 13.99c0 0-5.846-4.479-17.96-0.062s-25.27 16.282-25.27 16.282l-12.17-21.099c0 0 16.607-13.917 27.77-16.098 9.045-1.777 13.781 0.673 13.781 0.673l13.851 20.305z"></path>
</symbol>
<symbol id="icon-Vector21" viewBox="0 0 28 32">
<path d="M6.935 31.525l-2.228-23.227 21.033-8.285 2.318 23.552-21.124 7.959z"></path>
</symbol>
<symbol id="icon-Vector22" viewBox="0 0 27 32">
<path fill="#fff" style="fill: var(--color1, #fff); stroke: var(--color2, #ff6b00)" stroke="#ff6b00" stroke-linejoin="miter" stroke-linecap="butt" stroke-miterlimit="10" stroke-width="0.2943" d="M0.351 11.578l40.295-11.169 5.548 20.015-40.295 11.169-5.548-20.015z"></path>
</symbol>
<symbol id="icon-Vector23" viewBox="0 0 38 32">
<path fill="#fff" style="fill: var(--color1, #fff)" d="M37.901 17.552l-22.708-17.439-15.012 13.231 22.746 18.424 14.974-14.216z"></path>
</symbol>
<symbol id="icon-Vector24" viewBox="0 0 47 32">
<path fill="#666" style="fill: var(--color3, #666)" d="M31.436 19.459l-10.037 0.881-1.758 10.352-10.403 1.101 1.758-10.498-10.77 0.954 1.758-10.865 21.246-1.468 1.758-10.498 10.037-0.514 1.832-10.425 9.67-0.294-1.831 10.205-1.758 10.131-9.671 0.661-1.831 10.278z"></path>
</symbol>
<symbol id="icon-Vector25" viewBox="0 0 33 32">
<path d="M32.899 0.33l-4.969 28.217-27.537 2.905 4.969-28.632 27.537-2.49z"></path>
</symbol>
<symbol id="icon-Vector26" viewBox="0 0 32 32">
<path fill="#ff6b00" style="fill: var(--color2, #ff6b00)" d="M14.51 16.455l-14.399 1.25 2.721-15.566 14.513-1.023 13.946-1.023-2.721 15.111-2.834 14.998-13.946 1.477 2.721-15.225z"></path>
</symbol>
<symbol id="icon-Vector27" viewBox="0 0 33 32">
<path d="M18.968 1.828l13.374-1.625-2.432 13.605-2.432 13.504-13.374 2.132-13.779 2.234 2.33-14.011 13.881-1.929 2.432-13.91z"></path>
</symbol>
<symbol id="icon-Vector28" viewBox="0 0 32 32">
<path fill="#ff6b00" style="fill: var(--color2, #ff6b00)" d="M27.533 31.568c0 0 1.626-3.28-1.003-6.397-2.602-3.117-26.322-21.903-26.322-21.903l3.199-3.172 26.864 22.174c0 0 2.629 2.602 0.678 5.855l-0.678 1.084-2.738 2.358z"></path>
</symbol>
<symbol id="icon-Vector29" viewBox="0 0 29 32">
<path fill="#fff" style="fill: var(--color1, #fff)" d="M28.614 25.849l-22.040-25.688-6.417 5.634 22.078 26.127 6.379-6.073z"></path>
</symbol>
<symbol id="icon-Vector30" viewBox="0 0 46 32">
<path d="M10.521 0.399l-10.252 8.655 27.563 22.521 18.067-17.059-35.378-14.118z"></path>
</symbol>
<symbol id="icon-Vector31" viewBox="0 0 31 32">
<path d="M31.039 31.866l-30.949-24.912 6.966-6.933 23.983 31.845z"></path>
</symbol>
<symbol id="icon-Vector32" viewBox="0 0 39 32">
<path fill="#ff6b00" style="fill: var(--color2, #ff6b00)" d="M38.528 9.476l-15.546-9.244-22.689 19.958 14.776 11.485 23.459-22.199z"></path>
</symbol>
<symbol id="icon-Vector33" viewBox="0 0 25 32">
<path fill="#fff" style="fill: var(--color1, #fff)" d="M1.695 9.254l11.282-9.166c0.233 2.412 1.261 4.855 1.261 4.855l10.987 10.364-3.782 3.284 0.249 0.202c1.805 1.805 0 3.984 0 3.984l-10.131 8.901c1.276-1.759-0.265-4.248-0.265-4.248l-9.96-11.562c-2.926-3.533 0.358-6.614 0.358-6.614z"></path>
</symbol>
<symbol id="icon-Vector34" viewBox="0 0 29 32">
<path fill="#fff" style="fill: var(--color1, #fff)" d="M17.158 13.954l9.647 10.941c0 0 3.025 3.529 1.849 5.546s-3.832 1.546-5.614 0.773c-1.781-0.773-22.924-16.168-22.924-16.168l17.395-14.891 8.286 6.235-8.639 7.563z"></path>
</symbol>
<symbol id="icon-Vector35" viewBox="0 0 32 32">
<path d="M22.468 31.903c0 0 1.45-1.658-2.417-9.048-3.868-7.459-14.574-17.405-14.574-17.405s-4.351-4.351-5.111-5.111l31.495 22.724-9.393 8.841z"></path>
</symbol>
<symbol id="icon-Vector36" viewBox="0 0 28 32">
<path fill="#fff" style="fill: var(--color1, #fff)" d="M1.199 0.266c0 0-2.868 4.209 1.526 9.992s10.87 13.646 10.87 13.646c0 0 3.238 5.088 1.388 7.725l12.813-12.166-26.598-19.197z"></path>
</symbol>
<symbol id="icon-Vector37" viewBox="0 0 86 32">
<path fill="#fff" style="fill: var(--color1, #fff)" stroke-linejoin="miter" stroke-linecap="butt" stroke-miterlimit="10" stroke-width="0.8403" stroke="#000" d="M75.774 25.485c0 0-9.748 8.571-22.353 4.706s-51.597-16.471-51.597-16.471l12.101-10.756c0 0 41.177 0 60.841-2.017l10.084 9.412-9.076 15.126z"></path>
</symbol>
<symbol id="icon-Vector38" viewBox="0 0 292 32">
<path fill="#fff" style="fill: var(--color1, #fff)" stroke-linejoin="miter" stroke-linecap="butt" stroke-miterlimit="10" stroke-width="3.1513" stroke="#000" d="M3.465 5.232h284.875v22.059h-284.875v-22.059z"></path>
</symbol>
<symbol id="icon-Vector" viewBox="0 0 37 32">
<path fill="#fff" style="fill: var(--color1, #fff)" d="M23.857 29.647l2.958-0.82-0.819-2.956-2.958 0.82-0.819-2.956 2.958-0.82-0.819-2.956-5.915 1.64-0.819-2.956 2.958-0.82-0.819-2.956-2.958 0.82 0.819 2.956-5.915 1.64-0.819-2.956-5.915 1.64 1.639 5.912-2.958 0.82-0.819-2.956-1.32 0.366-1.38-19.917c0 0 1.959-2.918 7.224-3.104 7.886-0.276 11.756 3.965 18.282 5.413 4.101 0.92 5.011-0.924 5.011-0.924l2.661 17.113c0 0 6.864-1.486 10.783 3.108 2.326 2.734-1.17 5.589-4.788 6.592-3.777 1.047-8.243 0.399-15.395-1.536l-0.057-0.205z"></path>
</symbol>
<symbol id="icon-github" viewBox="0 0 32 32">
<path d="M16 0.395c-8.836 0-16 7.163-16 16 0 7.069 4.585 13.067 10.942 15.182 0.8 0.148 1.094-0.347 1.094-0.77 0-0.381-0.015-1.642-0.022-2.979-4.452 0.968-5.391-1.888-5.391-1.888-0.728-1.849-1.776-2.341-1.776-2.341-1.452-0.993 0.11-0.973 0.11-0.973 1.606 0.113 2.452 1.649 2.452 1.649 1.427 2.446 3.743 1.739 4.656 1.33 0.143-1.034 0.558-1.74 1.016-2.14-3.554-0.404-7.29-1.777-7.29-7.907 0-1.747 0.625-3.174 1.649-4.295-0.166-0.403-0.714-2.030 0.155-4.234 0 0 1.344-0.43 4.401 1.64 1.276-0.355 2.645-0.532 4.005-0.539 1.359 0.006 2.729 0.184 4.008 0.539 3.054-2.070 4.395-1.64 4.395-1.64 0.871 2.204 0.323 3.831 0.157 4.234 1.026 1.12 1.647 2.548 1.647 4.295 0 6.145-3.743 7.498-7.306 7.895 0.574 0.497 1.085 1.47 1.085 2.963 0 2.141-0.019 3.864-0.019 4.391 0 0.426 0.288 0.925 1.099 0.768 6.354-2.118 10.933-8.113 10.933-15.18 0-8.837-7.164-16-16-16z"></path>
</symbol>
<symbol id="icon-linkedin2" viewBox="0 0 32 32">
<path d="M12 12h5.535v2.837h0.079c0.77-1.381 2.655-2.837 5.464-2.837 5.842 0 6.922 3.637 6.922 8.367v9.633h-5.769v-8.54c0-2.037-0.042-4.657-3.001-4.657-3.005 0-3.463 2.218-3.463 4.509v8.688h-5.767v-18z"></path>
<path d="M2 12h6v18h-6v-18z"></path>
<path d="M8 7c0 1.657-1.343 3-3 3s-3-1.343-3-3c0-1.657 1.343-3 3-3s3 1.343 3 3z"></path>
</symbol>
</defs>
</svg>
